<mxfile host="Electron" agent="Mozilla/5.0 (Windows NT 10.0; Win64; x64) AppleWebKit/537.36 (KHTML, like Gecko) draw.io/24.7.5 Chrome/126.0.6478.183 Electron/31.3.0 Safari/537.36" version="24.7.5" pages="2">
  <diagram name="Page-1" id="F8XjVyruuGuQnzPDTRxF">
    <mxGraphModel dx="1343" dy="638" grid="1" gridSize="10" guides="1" tooltips="1" connect="1" arrows="1" fold="1" page="1" pageScale="1" pageWidth="850" pageHeight="1100" math="0" shadow="0">
      <root>
        <mxCell id="0" />
        <mxCell id="1" parent="0" />
        <mxCell id="S3deolAy15Lu4xNFP02_-1" value="" style="html=1;whiteSpace=wrap;" vertex="1" parent="1">
          <mxGeometry x="220" y="50" width="390" height="480" as="geometry" />
        </mxCell>
        <mxCell id="S3deolAy15Lu4xNFP02_-3" value="Hospital Management System" style="html=1;whiteSpace=wrap;align=left;" vertex="1" parent="1">
          <mxGeometry x="220" y="50" width="180" height="40" as="geometry" />
        </mxCell>
        <mxCell id="S3deolAy15Lu4xNFP02_-4" value="Login" style="shape=ellipse;html=1;dashed=0;whiteSpace=wrap;perimeter=ellipsePerimeter;" vertex="1" parent="1">
          <mxGeometry x="350" y="120" width="60" height="30" as="geometry" />
        </mxCell>
        <mxCell id="S3deolAy15Lu4xNFP02_-5" value="Staffr" style="shape=umlActor;verticalLabelPosition=bottom;verticalAlign=top;html=1;" vertex="1" parent="1">
          <mxGeometry x="80" y="240" width="30" height="60" as="geometry" />
        </mxCell>
        <mxCell id="S3deolAy15Lu4xNFP02_-6" value="Doctor" style="shape=umlActor;verticalLabelPosition=bottom;verticalAlign=top;html=1;" vertex="1" parent="1">
          <mxGeometry x="660" y="210" width="30" height="60" as="geometry" />
        </mxCell>
        <mxCell id="S3deolAy15Lu4xNFP02_-7" value="" style="endArrow=classic;html=1;rounded=0;entryX=0.288;entryY=0.94;entryDx=0;entryDy=0;entryPerimeter=0;" edge="1" parent="1" source="S3deolAy15Lu4xNFP02_-5" target="S3deolAy15Lu4xNFP02_-4">
          <mxGeometry width="50" height="50" relative="1" as="geometry">
            <mxPoint x="400" y="340" as="sourcePoint" />
            <mxPoint x="450" y="290" as="targetPoint" />
          </mxGeometry>
        </mxCell>
        <mxCell id="S3deolAy15Lu4xNFP02_-8" value="" style="endArrow=classic;html=1;rounded=0;exitX=0.667;exitY=0.667;exitDx=0;exitDy=0;exitPerimeter=0;entryX=1;entryY=0.5;entryDx=0;entryDy=0;" edge="1" parent="1" source="S3deolAy15Lu4xNFP02_-6" target="S3deolAy15Lu4xNFP02_-4">
          <mxGeometry width="50" height="50" relative="1" as="geometry">
            <mxPoint x="120" y="274" as="sourcePoint" />
            <mxPoint x="379" y="177" as="targetPoint" />
          </mxGeometry>
        </mxCell>
        <mxCell id="S3deolAy15Lu4xNFP02_-10" value="extend" style="html=1;verticalAlign=bottom;endArrow=open;dashed=1;endSize=8;curved=0;rounded=0;entryX=1;entryY=0;entryDx=0;entryDy=0;exitX=0.667;exitY=0.109;exitDx=0;exitDy=0;exitPerimeter=0;" edge="1" parent="1" source="S3deolAy15Lu4xNFP02_-1" target="S3deolAy15Lu4xNFP02_-4">
          <mxGeometry relative="1" as="geometry">
            <mxPoint x="460" y="310" as="sourcePoint" />
            <mxPoint x="380" y="310" as="targetPoint" />
          </mxGeometry>
        </mxCell>
        <mxCell id="S3deolAy15Lu4xNFP02_-11" value="Reset Password" style="shape=ellipse;html=1;dashed=0;whiteSpace=wrap;perimeter=ellipsePerimeter;" vertex="1" parent="1">
          <mxGeometry x="500" y="100" width="80" height="30" as="geometry" />
        </mxCell>
        <mxCell id="S3deolAy15Lu4xNFP02_-12" value="Check Availability" style="shape=ellipse;html=1;dashed=0;whiteSpace=wrap;perimeter=ellipsePerimeter;" vertex="1" parent="1">
          <mxGeometry x="337" y="180" width="70" height="40" as="geometry" />
        </mxCell>
        <mxCell id="S3deolAy15Lu4xNFP02_-13" value="Book Appointment" style="shape=ellipse;html=1;dashed=0;whiteSpace=wrap;perimeter=ellipsePerimeter;" vertex="1" parent="1">
          <mxGeometry x="320" y="240" width="70" height="40" as="geometry" />
        </mxCell>
        <mxCell id="S3deolAy15Lu4xNFP02_-14" value="Schedule Update" style="shape=ellipse;html=1;dashed=0;whiteSpace=wrap;perimeter=ellipsePerimeter;" vertex="1" parent="1">
          <mxGeometry x="423" y="180" width="70" height="40" as="geometry" />
        </mxCell>
        <mxCell id="S3deolAy15Lu4xNFP02_-15" value="Include" style="html=1;verticalAlign=bottom;endArrow=open;dashed=1;endSize=8;curved=0;rounded=0;exitX=0.697;exitY=0.055;exitDx=0;exitDy=0;exitPerimeter=0;" edge="1" parent="1" source="S3deolAy15Lu4xNFP02_-13" target="S3deolAy15Lu4xNFP02_-12">
          <mxGeometry x="-0.6571" y="-21" relative="1" as="geometry">
            <mxPoint x="490" y="120" as="sourcePoint" />
            <mxPoint x="411" y="134" as="targetPoint" />
            <mxPoint as="offset" />
          </mxGeometry>
        </mxCell>
        <mxCell id="S3deolAy15Lu4xNFP02_-16" value="Prepare Bill" style="shape=ellipse;html=1;dashed=0;whiteSpace=wrap;perimeter=ellipsePerimeter;" vertex="1" parent="1">
          <mxGeometry x="330" y="300" width="70" height="40" as="geometry" />
        </mxCell>
        <mxCell id="S3deolAy15Lu4xNFP02_-17" value="Prepare Report" style="shape=ellipse;html=1;dashed=0;whiteSpace=wrap;perimeter=ellipsePerimeter;" vertex="1" parent="1">
          <mxGeometry x="425" y="240" width="70" height="40" as="geometry" />
        </mxCell>
        <mxCell id="S3deolAy15Lu4xNFP02_-19" value="Include" style="html=1;verticalAlign=bottom;endArrow=open;dashed=1;endSize=8;curved=0;rounded=0;exitX=0.697;exitY=0.055;exitDx=0;exitDy=0;exitPerimeter=0;entryX=0.11;entryY=0.696;entryDx=0;entryDy=0;entryPerimeter=0;" edge="1" parent="1" target="S3deolAy15Lu4xNFP02_-20">
          <mxGeometry x="-0.6571" y="-21" relative="1" as="geometry">
            <mxPoint x="493" y="251" as="sourcePoint" />
            <mxPoint x="495" y="229" as="targetPoint" />
            <mxPoint as="offset" />
          </mxGeometry>
        </mxCell>
        <mxCell id="S3deolAy15Lu4xNFP02_-20" value="Save Report" style="shape=ellipse;html=1;dashed=0;whiteSpace=wrap;perimeter=ellipsePerimeter;" vertex="1" parent="1">
          <mxGeometry x="525" y="230" width="55" height="30" as="geometry" />
        </mxCell>
        <mxCell id="S3deolAy15Lu4xNFP02_-21" value="" style="endArrow=classic;html=1;rounded=0;exitX=0.667;exitY=0.667;exitDx=0;exitDy=0;exitPerimeter=0;entryX=1.027;entryY=0.66;entryDx=0;entryDy=0;entryPerimeter=0;" edge="1" parent="1" target="S3deolAy15Lu4xNFP02_-14">
          <mxGeometry width="50" height="50" relative="1" as="geometry">
            <mxPoint x="690" y="260" as="sourcePoint" />
            <mxPoint x="420" y="145" as="targetPoint" />
          </mxGeometry>
        </mxCell>
        <mxCell id="S3deolAy15Lu4xNFP02_-22" value="" style="endArrow=classic;html=1;rounded=0;exitX=0.667;exitY=0.667;exitDx=0;exitDy=0;exitPerimeter=0;entryX=0.5;entryY=1;entryDx=0;entryDy=0;" edge="1" parent="1" target="S3deolAy15Lu4xNFP02_-17">
          <mxGeometry width="50" height="50" relative="1" as="geometry">
            <mxPoint x="700" y="270" as="sourcePoint" />
            <mxPoint x="505" y="216" as="targetPoint" />
          </mxGeometry>
        </mxCell>
        <mxCell id="S3deolAy15Lu4xNFP02_-23" value="" style="endArrow=classic;html=1;rounded=0;exitX=0.5;exitY=0.5;exitDx=0;exitDy=0;exitPerimeter=0;" edge="1" parent="1" source="S3deolAy15Lu4xNFP02_-5" target="S3deolAy15Lu4xNFP02_-13">
          <mxGeometry width="50" height="50" relative="1" as="geometry">
            <mxPoint x="120" y="273" as="sourcePoint" />
            <mxPoint x="377" y="158" as="targetPoint" />
          </mxGeometry>
        </mxCell>
        <mxCell id="S3deolAy15Lu4xNFP02_-24" value="" style="endArrow=classic;html=1;rounded=0;exitX=0.5;exitY=0.5;exitDx=0;exitDy=0;exitPerimeter=0;entryX=0;entryY=0;entryDx=0;entryDy=0;" edge="1" parent="1" target="S3deolAy15Lu4xNFP02_-16">
          <mxGeometry width="50" height="50" relative="1" as="geometry">
            <mxPoint x="105" y="280" as="sourcePoint" />
            <mxPoint x="330" y="271" as="targetPoint" />
          </mxGeometry>
        </mxCell>
        <mxCell id="S3deolAy15Lu4xNFP02_-25" value="View Report" style="shape=ellipse;html=1;dashed=0;whiteSpace=wrap;perimeter=ellipsePerimeter;" vertex="1" parent="1">
          <mxGeometry x="390" y="350" width="70" height="40" as="geometry" />
        </mxCell>
        <mxCell id="S3deolAy15Lu4xNFP02_-26" value="" style="endArrow=classic;html=1;rounded=0;exitX=0.5;exitY=0.5;exitDx=0;exitDy=0;exitPerimeter=0;" edge="1" parent="1" target="S3deolAy15Lu4xNFP02_-25">
          <mxGeometry width="50" height="50" relative="1" as="geometry">
            <mxPoint x="115" y="290" as="sourcePoint" />
            <mxPoint x="350" y="316" as="targetPoint" />
          </mxGeometry>
        </mxCell>
        <mxCell id="S3deolAy15Lu4xNFP02_-27" value="" style="endArrow=classic;html=1;rounded=0;entryX=1;entryY=0;entryDx=0;entryDy=0;" edge="1" parent="1" target="S3deolAy15Lu4xNFP02_-25">
          <mxGeometry width="50" height="50" relative="1" as="geometry">
            <mxPoint x="660" y="280" as="sourcePoint" />
            <mxPoint x="403" y="372" as="targetPoint" />
          </mxGeometry>
        </mxCell>
        <mxCell id="S3deolAy15Lu4xNFP02_-28" value="View Inventory" style="shape=ellipse;html=1;dashed=0;whiteSpace=wrap;perimeter=ellipsePerimeter;" vertex="1" parent="1">
          <mxGeometry x="390" y="410" width="70" height="40" as="geometry" />
        </mxCell>
        <mxCell id="S3deolAy15Lu4xNFP02_-29" value="Update Inventory" style="shape=ellipse;html=1;dashed=0;whiteSpace=wrap;perimeter=ellipsePerimeter;" vertex="1" parent="1">
          <mxGeometry x="310" y="470" width="70" height="40" as="geometry" />
        </mxCell>
        <mxCell id="S3deolAy15Lu4xNFP02_-30" value="" style="endArrow=classic;html=1;rounded=0;exitX=0.5;exitY=0.5;exitDx=0;exitDy=0;exitPerimeter=0;entryX=0.067;entryY=0.232;entryDx=0;entryDy=0;entryPerimeter=0;" edge="1" parent="1" target="S3deolAy15Lu4xNFP02_-28">
          <mxGeometry width="50" height="50" relative="1" as="geometry">
            <mxPoint x="110" y="289" as="sourcePoint" />
            <mxPoint x="388" y="361" as="targetPoint" />
          </mxGeometry>
        </mxCell>
        <mxCell id="S3deolAy15Lu4xNFP02_-31" value="" style="endArrow=classic;html=1;rounded=0;" edge="1" parent="1" target="S3deolAy15Lu4xNFP02_-29">
          <mxGeometry width="50" height="50" relative="1" as="geometry">
            <mxPoint x="110" y="290" as="sourcePoint" />
            <mxPoint x="413" y="382" as="targetPoint" />
          </mxGeometry>
        </mxCell>
        <mxCell id="S3deolAy15Lu4xNFP02_-34" value="" style="endArrow=classic;html=1;rounded=0;entryX=0.981;entryY=0.336;entryDx=0;entryDy=0;entryPerimeter=0;" edge="1" parent="1" target="S3deolAy15Lu4xNFP02_-28">
          <mxGeometry width="50" height="50" relative="1" as="geometry">
            <mxPoint x="670" y="290" as="sourcePoint" />
            <mxPoint x="460" y="366" as="targetPoint" />
          </mxGeometry>
        </mxCell>
        <mxCell id="S3deolAy15Lu4xNFP02_-35" value="Dipesh Shrestha" style="html=1;whiteSpace=wrap;" vertex="1" parent="1">
          <mxGeometry x="330" y="10" width="110" height="30" as="geometry" />
        </mxCell>
      </root>
    </mxGraphModel>
  </diagram>
  <diagram id="s_zH6CjQT6Ct_SV0mjrF" name="Page-2">
    <mxGraphModel dx="1290" dy="621" grid="1" gridSize="10" guides="1" tooltips="1" connect="1" arrows="1" fold="1" page="1" pageScale="1" pageWidth="850" pageHeight="1100" math="0" shadow="0">
      <root>
        <mxCell id="0" />
        <mxCell id="1" parent="0" />
        <mxCell id="qY2JAgiiEphrk0gXbK8F-1" value="" style="html=1;whiteSpace=wrap;" parent="1" vertex="1">
          <mxGeometry x="220" y="50" width="390" height="590" as="geometry" />
        </mxCell>
        <mxCell id="qY2JAgiiEphrk0gXbK8F-2" value="Ride Sharing System" style="html=1;whiteSpace=wrap;align=left;" parent="1" vertex="1">
          <mxGeometry x="220" y="50" width="180" height="40" as="geometry" />
        </mxCell>
        <mxCell id="qY2JAgiiEphrk0gXbK8F-3" value="Login/registration" style="shape=ellipse;html=1;dashed=0;whiteSpace=wrap;perimeter=ellipsePerimeter;" parent="1" vertex="1">
          <mxGeometry x="297" y="110" width="110" height="40" as="geometry" />
        </mxCell>
        <mxCell id="qY2JAgiiEphrk0gXbK8F-4" value="Customer" style="shape=umlActor;verticalLabelPosition=bottom;verticalAlign=top;html=1;" parent="1" vertex="1">
          <mxGeometry x="80" y="240" width="30" height="60" as="geometry" />
        </mxCell>
        <mxCell id="qY2JAgiiEphrk0gXbK8F-5" value="Driver" style="shape=umlActor;verticalLabelPosition=bottom;verticalAlign=top;html=1;" parent="1" vertex="1">
          <mxGeometry x="690" y="210" width="30" height="60" as="geometry" />
        </mxCell>
        <mxCell id="qY2JAgiiEphrk0gXbK8F-6" value="" style="endArrow=classic;html=1;rounded=0;entryX=0.288;entryY=0.94;entryDx=0;entryDy=0;entryPerimeter=0;" parent="1" source="qY2JAgiiEphrk0gXbK8F-4" target="qY2JAgiiEphrk0gXbK8F-3" edge="1">
          <mxGeometry width="50" height="50" relative="1" as="geometry">
            <mxPoint x="400" y="340" as="sourcePoint" />
            <mxPoint x="450" y="290" as="targetPoint" />
            <Array as="points">
              <mxPoint x="110" y="260" />
            </Array>
          </mxGeometry>
        </mxCell>
        <mxCell id="qY2JAgiiEphrk0gXbK8F-8" value="&amp;lt;&amp;lt;extend&amp;gt;&amp;gt;" style="html=1;verticalAlign=bottom;endArrow=open;dashed=1;endSize=8;curved=0;rounded=0;entryX=1;entryY=0;entryDx=0;entryDy=0;exitX=0.667;exitY=0.109;exitDx=0;exitDy=0;exitPerimeter=0;" parent="1" edge="1">
          <mxGeometry x="0.2222" y="-7" relative="1" as="geometry">
            <mxPoint x="480.1300000000001" y="103.32000000000005" as="sourcePoint" />
            <mxPoint x="401.21320343559637" y="125.39339828220182" as="targetPoint" />
            <mxPoint as="offset" />
          </mxGeometry>
        </mxCell>
        <mxCell id="qY2JAgiiEphrk0gXbK8F-9" value="Reset Password" style="shape=ellipse;html=1;dashed=0;whiteSpace=wrap;perimeter=ellipsePerimeter;" parent="1" vertex="1">
          <mxGeometry x="480" y="90" width="80" height="30" as="geometry" />
        </mxCell>
        <mxCell id="qY2JAgiiEphrk0gXbK8F-11" value="Book a Ride" style="shape=ellipse;html=1;dashed=0;whiteSpace=wrap;perimeter=ellipsePerimeter;" parent="1" vertex="1">
          <mxGeometry x="310" y="240" width="80" height="40" as="geometry" />
        </mxCell>
        <mxCell id="qY2JAgiiEphrk0gXbK8F-12" value="Select Pickup and Destination point" style="shape=ellipse;html=1;dashed=0;whiteSpace=wrap;perimeter=ellipsePerimeter;" parent="1" vertex="1">
          <mxGeometry x="287" y="190" width="120" height="30" as="geometry" />
        </mxCell>
        <mxCell id="qY2JAgiiEphrk0gXbK8F-14" value="View Ride History" style="shape=ellipse;html=1;dashed=0;whiteSpace=wrap;perimeter=ellipsePerimeter;" parent="1" vertex="1">
          <mxGeometry x="400" y="290" width="70" height="40" as="geometry" />
        </mxCell>
        <mxCell id="qY2JAgiiEphrk0gXbK8F-19" value="" style="endArrow=classic;html=1;rounded=0;exitX=0;exitY=0.3333333333333333;exitDx=0;exitDy=0;exitPerimeter=0;" parent="1" source="qY2JAgiiEphrk0gXbK8F-5" target="qY2JAgiiEphrk0gXbK8F-3" edge="1">
          <mxGeometry width="50" height="50" relative="1" as="geometry">
            <mxPoint x="700" y="270" as="sourcePoint" />
            <mxPoint x="460" y="280" as="targetPoint" />
          </mxGeometry>
        </mxCell>
        <mxCell id="qY2JAgiiEphrk0gXbK8F-20" value="" style="endArrow=classic;html=1;rounded=0;exitX=0.5;exitY=0.5;exitDx=0;exitDy=0;exitPerimeter=0;" parent="1" source="qY2JAgiiEphrk0gXbK8F-4" target="qY2JAgiiEphrk0gXbK8F-11" edge="1">
          <mxGeometry width="50" height="50" relative="1" as="geometry">
            <mxPoint x="120" y="273" as="sourcePoint" />
            <mxPoint x="377" y="158" as="targetPoint" />
          </mxGeometry>
        </mxCell>
        <mxCell id="qY2JAgiiEphrk0gXbK8F-21" value="" style="endArrow=classic;html=1;rounded=0;exitX=0.524;exitY=0.656;exitDx=0;exitDy=0;exitPerimeter=0;entryX=0;entryY=0;entryDx=0;entryDy=0;" parent="1" source="qY2JAgiiEphrk0gXbK8F-4" target="qY2JAgiiEphrk0gXbK8F-14" edge="1">
          <mxGeometry width="50" height="50" relative="1" as="geometry">
            <mxPoint x="105" y="280" as="sourcePoint" />
            <mxPoint x="330" y="271" as="targetPoint" />
          </mxGeometry>
        </mxCell>
        <mxCell id="qY2JAgiiEphrk0gXbK8F-22" value="Rate and Review" style="shape=ellipse;html=1;dashed=0;whiteSpace=wrap;perimeter=ellipsePerimeter;" parent="1" vertex="1">
          <mxGeometry x="300" y="320" width="70" height="40" as="geometry" />
        </mxCell>
        <mxCell id="qY2JAgiiEphrk0gXbK8F-23" value="" style="endArrow=classic;html=1;rounded=0;exitX=0.625;exitY=0.687;exitDx=0;exitDy=0;exitPerimeter=0;" parent="1" source="qY2JAgiiEphrk0gXbK8F-4" target="qY2JAgiiEphrk0gXbK8F-22" edge="1">
          <mxGeometry width="50" height="50" relative="1" as="geometry">
            <mxPoint x="115" y="290" as="sourcePoint" />
            <mxPoint x="350" y="316" as="targetPoint" />
          </mxGeometry>
        </mxCell>
        <mxCell id="qY2JAgiiEphrk0gXbK8F-24" value="" style="endArrow=classic;html=1;rounded=0;entryX=1;entryY=0.5;entryDx=0;entryDy=0;exitX=0.333;exitY=0.333;exitDx=0;exitDy=0;exitPerimeter=0;" parent="1" source="qY2JAgiiEphrk0gXbK8F-5" target="qY2JAgiiEphrk0gXbK8F-14" edge="1">
          <mxGeometry width="50" height="50" relative="1" as="geometry">
            <mxPoint x="660" y="230" as="sourcePoint" />
            <mxPoint x="403" y="372" as="targetPoint" />
          </mxGeometry>
        </mxCell>
        <mxCell id="qY2JAgiiEphrk0gXbK8F-25" value="Manage Profile" style="shape=ellipse;html=1;dashed=0;whiteSpace=wrap;perimeter=ellipsePerimeter;" parent="1" vertex="1">
          <mxGeometry x="390" y="390" width="70" height="40" as="geometry" />
        </mxCell>
        <mxCell id="qY2JAgiiEphrk0gXbK8F-26" value="Fare Info" style="shape=ellipse;html=1;dashed=0;whiteSpace=wrap;perimeter=ellipsePerimeter;" parent="1" vertex="1">
          <mxGeometry x="370" y="450" width="70" height="40" as="geometry" />
        </mxCell>
        <mxCell id="qY2JAgiiEphrk0gXbK8F-27" value="" style="endArrow=classic;html=1;rounded=0;exitX=0.511;exitY=0.675;exitDx=0;exitDy=0;exitPerimeter=0;entryX=0.067;entryY=0.232;entryDx=0;entryDy=0;entryPerimeter=0;" parent="1" source="qY2JAgiiEphrk0gXbK8F-4" target="qY2JAgiiEphrk0gXbK8F-25" edge="1">
          <mxGeometry width="50" height="50" relative="1" as="geometry">
            <mxPoint x="110" y="289" as="sourcePoint" />
            <mxPoint x="388" y="361" as="targetPoint" />
          </mxGeometry>
        </mxCell>
        <mxCell id="qY2JAgiiEphrk0gXbK8F-28" value="" style="endArrow=classic;html=1;rounded=0;exitX=0.575;exitY=0.725;exitDx=0;exitDy=0;exitPerimeter=0;" parent="1" source="qY2JAgiiEphrk0gXbK8F-4" target="qY2JAgiiEphrk0gXbK8F-26" edge="1">
          <mxGeometry width="50" height="50" relative="1" as="geometry">
            <mxPoint x="110" y="290" as="sourcePoint" />
            <mxPoint x="413" y="382" as="targetPoint" />
          </mxGeometry>
        </mxCell>
        <mxCell id="qY2JAgiiEphrk0gXbK8F-29" value="" style="endArrow=classic;html=1;rounded=0;entryX=0.981;entryY=0.336;entryDx=0;entryDy=0;entryPerimeter=0;exitX=0.5;exitY=0.5;exitDx=0;exitDy=0;exitPerimeter=0;" parent="1" source="qY2JAgiiEphrk0gXbK8F-5" target="qY2JAgiiEphrk0gXbK8F-25" edge="1">
          <mxGeometry width="50" height="50" relative="1" as="geometry">
            <mxPoint x="690" y="320" as="sourcePoint" />
            <mxPoint x="460" y="366" as="targetPoint" />
          </mxGeometry>
        </mxCell>
        <mxCell id="qY2JAgiiEphrk0gXbK8F-32" value="&amp;lt;&amp;lt;include&amp;gt;&amp;gt;" style="html=1;verticalAlign=bottom;endArrow=open;dashed=1;endSize=8;curved=0;rounded=0;entryX=0.5;entryY=1;entryDx=0;entryDy=0;exitX=0.5;exitY=0;exitDx=0;exitDy=0;" parent="1" edge="1">
          <mxGeometry x="-0.4279" y="39" relative="1" as="geometry">
            <mxPoint x="349" y="240" as="sourcePoint" />
            <mxPoint x="345.9999999999999" y="220" as="targetPoint" />
            <mxPoint as="offset" />
          </mxGeometry>
        </mxCell>
        <mxCell id="qY2JAgiiEphrk0gXbK8F-33" value="Accept/Reject Ride" style="shape=ellipse;html=1;dashed=0;whiteSpace=wrap;perimeter=ellipsePerimeter;" parent="1" vertex="1">
          <mxGeometry x="490" y="210" width="85.79" height="40" as="geometry" />
        </mxCell>
        <mxCell id="qY2JAgiiEphrk0gXbK8F-34" value="&amp;lt;&amp;lt;extend&amp;gt;&amp;gt;" style="html=1;verticalAlign=bottom;endArrow=open;dashed=1;endSize=8;curved=0;rounded=0;entryX=0.959;entryY=0.322;entryDx=0;entryDy=0;exitX=0.667;exitY=0.109;exitDx=0;exitDy=0;exitPerimeter=0;entryPerimeter=0;" parent="1" target="qY2JAgiiEphrk0gXbK8F-11" edge="1">
          <mxGeometry x="0.2222" y="-7" relative="1" as="geometry">
            <mxPoint x="485.92000000000013" y="233.32000000000005" as="sourcePoint" />
            <mxPoint x="407.0032034355964" y="255.39339828220182" as="targetPoint" />
            <mxPoint as="offset" />
          </mxGeometry>
        </mxCell>
        <mxCell id="qY2JAgiiEphrk0gXbK8F-35" value="" style="endArrow=classic;html=1;rounded=0;entryX=1;entryY=1;entryDx=0;entryDy=0;exitX=0;exitY=0.3333333333333333;exitDx=0;exitDy=0;exitPerimeter=0;" parent="1" source="qY2JAgiiEphrk0gXbK8F-5" target="qY2JAgiiEphrk0gXbK8F-33" edge="1">
          <mxGeometry width="50" height="50" relative="1" as="geometry">
            <mxPoint x="670" y="290" as="sourcePoint" />
            <mxPoint x="480" y="320" as="targetPoint" />
          </mxGeometry>
        </mxCell>
        <mxCell id="qY2JAgiiEphrk0gXbK8F-36" value="" style="endArrow=classic;html=1;rounded=0;entryX=1;entryY=0.5;entryDx=0;entryDy=0;exitX=0;exitY=1;exitDx=0;exitDy=0;exitPerimeter=0;" parent="1" source="qY2JAgiiEphrk0gXbK8F-5" target="qY2JAgiiEphrk0gXbK8F-26" edge="1">
          <mxGeometry width="50" height="50" relative="1" as="geometry">
            <mxPoint x="680" y="300" as="sourcePoint" />
            <mxPoint x="469" y="413" as="targetPoint" />
          </mxGeometry>
        </mxCell>
        <mxCell id="qY2JAgiiEphrk0gXbK8F-37" value="End Ride" style="shape=ellipse;html=1;dashed=0;whiteSpace=wrap;perimeter=ellipsePerimeter;" parent="1" vertex="1">
          <mxGeometry x="490" y="490" width="70" height="30" as="geometry" />
        </mxCell>
        <mxCell id="qY2JAgiiEphrk0gXbK8F-38" value="Start Ride" style="shape=ellipse;html=1;dashed=0;whiteSpace=wrap;perimeter=ellipsePerimeter;" parent="1" vertex="1">
          <mxGeometry x="490" y="430" width="70" height="30" as="geometry" />
        </mxCell>
        <mxCell id="qY2JAgiiEphrk0gXbK8F-39" value="" style="endArrow=classic;html=1;rounded=0;entryX=1;entryY=0;entryDx=0;entryDy=0;exitX=0.417;exitY=0.576;exitDx=0;exitDy=0;exitPerimeter=0;" parent="1" source="qY2JAgiiEphrk0gXbK8F-5" target="qY2JAgiiEphrk0gXbK8F-38" edge="1">
          <mxGeometry width="50" height="50" relative="1" as="geometry">
            <mxPoint x="670" y="280" as="sourcePoint" />
            <mxPoint x="450" y="480" as="targetPoint" />
          </mxGeometry>
        </mxCell>
        <mxCell id="qY2JAgiiEphrk0gXbK8F-40" value="&amp;lt;&amp;lt;include&amp;gt;&amp;gt;" style="html=1;verticalAlign=bottom;endArrow=open;dashed=1;endSize=8;curved=0;rounded=0;entryX=0.5;entryY=0;entryDx=0;entryDy=0;exitX=0.5;exitY=1;exitDx=0;exitDy=0;" parent="1" source="qY2JAgiiEphrk0gXbK8F-38" target="qY2JAgiiEphrk0gXbK8F-37" edge="1">
          <mxGeometry x="0.2222" y="-7" relative="1" as="geometry">
            <mxPoint x="495.92000000000013" y="243.32000000000005" as="sourcePoint" />
            <mxPoint x="397" y="263" as="targetPoint" />
            <mxPoint as="offset" />
          </mxGeometry>
        </mxCell>
        <mxCell id="qY2JAgiiEphrk0gXbK8F-41" value="Cancel Ride" style="shape=ellipse;html=1;dashed=0;whiteSpace=wrap;perimeter=ellipsePerimeter;" parent="1" vertex="1">
          <mxGeometry x="380" y="510" width="70" height="30" as="geometry" />
        </mxCell>
        <mxCell id="qY2JAgiiEphrk0gXbK8F-42" value="" style="endArrow=classic;html=1;rounded=0;entryX=0;entryY=0.5;entryDx=0;entryDy=0;" parent="1" target="qY2JAgiiEphrk0gXbK8F-41" edge="1">
          <mxGeometry width="50" height="50" relative="1" as="geometry">
            <mxPoint x="120" y="300" as="sourcePoint" />
            <mxPoint x="391" y="465" as="targetPoint" />
            <Array as="points">
              <mxPoint x="100" y="290" />
              <mxPoint x="120" y="300" />
            </Array>
          </mxGeometry>
        </mxCell>
        <mxCell id="qY2JAgiiEphrk0gXbK8F-43" value="&amp;lt;&amp;lt;extend&amp;gt;&amp;gt;" style="html=1;verticalAlign=bottom;endArrow=open;dashed=1;endSize=8;curved=0;rounded=0;entryX=0.959;entryY=0.322;entryDx=0;entryDy=0;exitX=0.089;exitY=0.66;exitDx=0;exitDy=0;exitPerimeter=0;entryPerimeter=0;" parent="1" source="qY2JAgiiEphrk0gXbK8F-38" edge="1">
          <mxGeometry x="0.1258" y="22" relative="1" as="geometry">
            <mxPoint x="523.9200000000001" y="490.00000000000006" as="sourcePoint" />
            <mxPoint x="425" y="509.68" as="targetPoint" />
            <mxPoint y="-1" as="offset" />
          </mxGeometry>
        </mxCell>
        <mxCell id="qY2JAgiiEphrk0gXbK8F-44" value="Negotiate Fare" style="shape=ellipse;html=1;dashed=0;whiteSpace=wrap;perimeter=ellipsePerimeter;" parent="1" vertex="1">
          <mxGeometry x="310" y="390" width="70" height="30" as="geometry" />
        </mxCell>
        <mxCell id="qY2JAgiiEphrk0gXbK8F-45" value="&amp;lt;&amp;lt;extend&amp;gt;&amp;gt;" style="html=1;verticalAlign=bottom;endArrow=open;dashed=1;endSize=8;curved=0;rounded=0;entryX=0.694;entryY=1.033;entryDx=0;entryDy=0;exitX=0.5;exitY=0;exitDx=0;exitDy=0;entryPerimeter=0;" parent="1" target="qY2JAgiiEphrk0gXbK8F-44" edge="1">
          <mxGeometry x="-0.3307" y="2" relative="1" as="geometry">
            <mxPoint x="393" y="450" as="sourcePoint" />
            <mxPoint x="352.46000000000004" y="415.14" as="targetPoint" />
            <mxPoint as="offset" />
          </mxGeometry>
        </mxCell>
        <mxCell id="qY2JAgiiEphrk0gXbK8F-46" value="Admin Dashboard" style="shape=ellipse;html=1;dashed=0;whiteSpace=wrap;perimeter=ellipsePerimeter;" parent="1" vertex="1">
          <mxGeometry x="230" y="530" width="120" height="30" as="geometry" />
        </mxCell>
        <mxCell id="qY2JAgiiEphrk0gXbK8F-47" value="Monitor Ride Activities" style="shape=ellipse;html=1;dashed=0;whiteSpace=wrap;perimeter=ellipsePerimeter;" parent="1" vertex="1">
          <mxGeometry x="215" y="480" width="120" height="30" as="geometry" />
        </mxCell>
        <mxCell id="qY2JAgiiEphrk0gXbK8F-48" value="Manage User Account" style="shape=ellipse;html=1;dashed=0;whiteSpace=wrap;perimeter=ellipsePerimeter;" parent="1" vertex="1">
          <mxGeometry x="247.5" y="580" width="125" height="30" as="geometry" />
        </mxCell>
        <mxCell id="qY2JAgiiEphrk0gXbK8F-50" value="Create Promo Code" style="shape=ellipse;html=1;dashed=0;whiteSpace=wrap;perimeter=ellipsePerimeter;" parent="1" vertex="1">
          <mxGeometry x="390" y="560" width="125" height="30" as="geometry" />
        </mxCell>
        <mxCell id="qY2JAgiiEphrk0gXbK8F-51" value="Administrator" style="shape=umlActor;verticalLabelPosition=bottom;verticalAlign=top;html=1;" parent="1" vertex="1">
          <mxGeometry x="90" y="520" width="30" height="60" as="geometry" />
        </mxCell>
        <mxCell id="qY2JAgiiEphrk0gXbK8F-52" value="" style="endArrow=classic;html=1;rounded=0;" parent="1" target="qY2JAgiiEphrk0gXbK8F-46" edge="1">
          <mxGeometry width="50" height="50" relative="1" as="geometry">
            <mxPoint x="120" y="540" as="sourcePoint" />
            <mxPoint x="380" y="765" as="targetPoint" />
          </mxGeometry>
        </mxCell>
        <mxCell id="qY2JAgiiEphrk0gXbK8F-56" value="" style="endArrow=classic;html=1;rounded=0;entryX=0.259;entryY=0.233;entryDx=0;entryDy=0;entryPerimeter=0;" parent="1" target="qY2JAgiiEphrk0gXbK8F-48" edge="1">
          <mxGeometry width="50" height="50" relative="1" as="geometry">
            <mxPoint x="120" y="540" as="sourcePoint" />
            <mxPoint x="257" y="565" as="targetPoint" />
          </mxGeometry>
        </mxCell>
        <mxCell id="qY2JAgiiEphrk0gXbK8F-57" value="" style="endArrow=classic;html=1;rounded=0;entryX=0;entryY=0.5;entryDx=0;entryDy=0;" parent="1" target="qY2JAgiiEphrk0gXbK8F-47" edge="1">
          <mxGeometry width="50" height="50" relative="1" as="geometry">
            <mxPoint x="130" y="540" as="sourcePoint" />
            <mxPoint x="290" y="597" as="targetPoint" />
          </mxGeometry>
        </mxCell>
        <mxCell id="qY2JAgiiEphrk0gXbK8F-58" value="" style="endArrow=classic;html=1;rounded=0;entryX=0;entryY=1;entryDx=0;entryDy=0;" parent="1" target="qY2JAgiiEphrk0gXbK8F-50" edge="1">
          <mxGeometry width="50" height="50" relative="1" as="geometry">
            <mxPoint x="130" y="540" as="sourcePoint" />
            <mxPoint x="225" y="505" as="targetPoint" />
          </mxGeometry>
        </mxCell>
      </root>
    </mxGraphModel>
  </diagram>
</mxfile>
